<svg width="2266" height="2026" viewBox="0 0 2266 2026" fill="none" xmlns="http://www.w3.org/2000/svg">
<path d="M1467.25 1096.17L997.359 1132.32C997.359 1132.32 1058.59 1253.68 1234.33 1340.05C1277.88 1361.45 1315.92 1392.59 1345.36 1431.13L1383.96 1432.31L1467.25 1096.17Z" fill="#F99370"/>
<path d="M1297.75 1132.32C1297.75 1132.32 1296.4 1172.64 1309.45 1229.2C1309.45 1229.2 1267.27 1181.23 997.359 1132.32H1297.75Z" fill="#E57D61"/>
<path d="M1057.87 477.213L1048.27 596.52C937.107 560.32 954.107 577.427 868.081 494.827C780.721 432.293 769.907 301.2 852.92 346.453C852.92 346.467 867.414 355.707 867.414 355.707L1057.87 477.213Z" fill="#F99370"/>
<path d="M905.253 379.853L904.746 528.506L868.066 494.84C868.04 494.84 867.413 355.706 867.413 355.706L905.253 379.853Z" fill="#E57D61"/>
<path d="M927.467 139.547V990.493H1464.76V139.547H927.467Z" fill="#D7DEFF"/>
<path d="M1279.6 696H1112.64C1104.84 696 1098.52 689.68 1098.52 681.88C1098.52 674.08 1104.84 667.76 1112.64 667.76H1279.6C1287.4 667.76 1293.72 674.08 1293.72 681.88C1293.72 689.68 1287.4 696 1279.6 696Z" fill="white"/>
<path d="M1322.67 728.667H1069.57C1066.45 728.667 1063.93 726.147 1063.93 723.027C1063.93 719.907 1066.45 717.373 1069.57 717.373H1322.67C1325.77 717.373 1328.31 719.907 1328.31 723.027C1328.31 726.147 1325.77 728.667 1322.67 728.667Z" fill="white"/>
<path d="M1322.67 752.333H1069.57C1066.45 752.333 1063.93 749.8 1063.93 746.693C1063.93 743.573 1066.45 741.04 1069.57 741.04H1322.67C1325.77 741.04 1328.31 743.573 1328.31 746.693C1328.31 749.8 1325.77 752.333 1322.67 752.333Z" fill="white"/>
<path d="M1272.43 850.8C1272.43 860.8 1268.63 870.787 1261 878.413L1251.33 888.08L1196.11 943.28L1140.89 888.08L1131.24 878.413C1116 863.16 1116 838.44 1131.24 823.2C1138.85 815.56 1148.85 811.76 1158.85 811.76C1168.84 811.76 1178.84 815.56 1186.47 823.2L1196.11 832.853L1205.77 823.2C1221.03 807.946 1245.73 807.946 1261 823.2C1268.63 830.826 1272.43 840.8 1272.43 850.8Z" fill="#F49F9F"/>
<path d="M1325 909.64V892.466H1289.69V862.573H1325V845.4L1380.63 877.52L1325 909.64Z" fill="#FCB4B4"/>
<path d="M1325 909.64V892.466H1289.69V877.52H1380.63L1325 909.64Z" fill="#F49F9F"/>
<path d="M1067.24 909.64V892.466H1102.55V862.573H1067.24V845.4L1011.61 877.52L1067.24 909.64Z" fill="#FCB4B4"/>
<path d="M1067.24 909.64V892.466H1102.55V877.52H1011.61L1067.24 909.64Z" fill="#F49F9F"/>
<path d="M1272.43 850.8C1272.43 860.8 1268.63 870.787 1261 878.413L1251.33 888.08L1196.11 943.28V832.853L1205.77 823.2C1221.03 807.946 1245.73 807.946 1261 823.2C1268.63 830.826 1272.43 840.8 1272.43 850.8Z" fill="#FCB4B4"/>
<path d="M1394.68 410.2C1394.67 457.653 1378.04 501.4 1350.04 535.733C1344.85 542.106 1339.25 548.16 1333.31 553.826C1331.16 555.88 1328.97 557.88 1326.75 559.826C1323.11 563.013 1319.33 566.066 1315.47 568.986C1314.32 569.853 1313.17 570.693 1312 571.52C1301.08 579.4 1289.31 586.2 1276.83 591.76C1271.11 594.32 1265.23 596.6 1259.23 598.626C1258.4 598.906 1257.57 599.186 1256.75 599.453C1252.87 600.773 1249 601.96 1245.11 603C1240.08 604.373 1235.05 605.493 1230 606.413C1214.89 609.146 1199.76 609.946 1184.81 608.96C1182.97 608.853 1181.13 608.706 1179.31 608.52C1172.65 607.906 1166.05 606.92 1159.52 605.626C1159.39 605.6 1159.24 605.573 1159.09 605.533C1158.93 605.506 1158.79 605.48 1158.63 605.453C1155.93 604.893 1153.24 604.28 1150.56 603.613C1148.61 603.12 1146.68 602.626 1144.76 602.093C1143.6 601.746 1142.43 601.413 1141.27 601.053C1112.85 592.506 1086.4 577.693 1064.13 558.106C1023.03 521.933 996.12 469.506 997.253 410.2C1001.68 148.973 1390.24 149.04 1394.68 410.2Z" fill="#8A9EDD"/>
<path d="M1231.99 281.173C1231.99 281.173 1255.19 261.387 1280.55 291.333C1305.91 321.267 1292.88 327.267 1327.61 359C1362.35 390.747 1324.36 445.04 1295.05 453.707C1265.75 462.387 1299.07 497.213 1240.61 505.853C1182.16 514.493 1037.59 361.56 1231.99 281.173Z" fill="#C92828"/>
<path d="M1198.72 482.587C1193.35 519.013 1194.32 566.893 1179.31 608.52C1172.51 607.893 1165.77 606.88 1159.09 605.533C1158.95 606.133 1158.87 606.76 1158.83 607.413C1158.76 606.76 1158.68 606.107 1158.63 605.453C1123.71 598.267 1090.87 581.64 1064.13 558.107C1099.08 519.187 1147.77 491.733 1198.72 482.587Z" fill="#9358E0"/>
<path d="M1150.56 603.613C1148.61 603.12 1146.68 602.627 1144.76 602.093C1143.6 601.747 1142.43 601.413 1141.27 601.053C1144.83 591.387 1148.44 587.013 1148.65 586.76C1148.67 586.747 1148.67 586.747 1148.67 586.747L1150.56 603.613Z" fill="#7640CC"/>
<path d="M1316.11 571.453C1314.76 571.653 1313.36 571.693 1312 571.52C1301.08 579.4 1289.31 586.2 1276.83 591.76C1272.43 561.253 1267.52 527.44 1263.41 499.346H1263.4C1262.67 494.2 1261.93 489.173 1261.21 484.306C1261.55 484.4 1261.88 484.546 1262.2 484.653V484.666C1294.07 496.04 1325.77 512.813 1350.04 535.733C1342.97 544.4 1335.16 552.48 1326.75 559.826C1326.31 566.706 1321.48 570.573 1316.11 571.453Z" fill="#9358E0"/>
<path d="M1316.11 571.453C1314.76 571.653 1313.36 571.693 1312 571.52C1268.59 602.853 1211.69 616.706 1159.09 605.533C1158.95 606.133 1158.87 606.76 1158.83 607.413C1151.91 558.04 1151.61 492.48 1209.76 477.893C1212.23 455.786 1210.85 429.093 1206.55 407.253C1206.53 407.24 1206.53 407.24 1206.55 407.226C1198.52 377.6 1247.96 365.773 1253.91 396.266C1257.13 413.746 1258.08 434.32 1259.2 453.08C1260.6 464.746 1256.76 478.413 1264.2 487.826C1308.44 524.266 1300.59 514.72 1316.11 571.453Z" fill="#F99370"/>
<path d="M1259.48 461.387C1249.47 463.453 1228.64 466.187 1210.89 458.347C1210.89 456.88 1210.87 455.373 1210.83 453.867C1211.15 439.293 1209.57 426.6 1208.48 418.453C1205.99 403.173 1203.19 397.453 1211.64 386.293C1217.75 378.68 1229.75 375.533 1238.8 379.253C1262.37 389.32 1255.4 422.387 1259.48 461.387Z" fill="#E57D61"/>
<path d="M1333.31 553.826C1331.16 555.88 1328.97 557.88 1326.75 559.826C1326.16 568.333 1319.07 572.32 1312 571.52C1268.59 602.853 1211.69 616.706 1159.09 605.533C1158.95 606.133 1158.87 606.76 1158.83 607.413C1158.76 606.76 1158.68 606.106 1158.63 605.453C1153.99 604.493 1149.33 603.36 1144.76 602.093C1153.11 560.586 1181.79 506.32 1198.32 482.226C1204.89 509.16 1217.49 556.773 1244.08 571.56C1274.15 584.506 1290.57 555.04 1282 526.64C1278.56 512.706 1271.01 498.986 1264.2 487.826C1263.32 486.413 1262.63 485.333 1262.2 484.666V484.653C1262.12 484.52 1262.03 484.413 1261.97 484.306C1292.04 499.44 1316.41 524.853 1333.31 553.826Z" fill="#9358E0"/>
<path d="M1261.76 590.693C1261.75 593.973 1260.79 596.6 1259.23 598.627C1258.4 598.907 1257.57 599.187 1256.75 599.453C1252.87 600.773 1249 601.96 1245.11 603C1241.2 602 1237.79 599.36 1236.4 595.053C1235.97 593.747 1235.73 592.307 1235.72 590.693C1235.75 585.147 1238.49 581.413 1242.21 579.467C1249.92 575.453 1261.72 579.2 1261.76 590.693Z" fill="#7640CC"/>
<path d="M1184.83 608.573C1184.83 608.707 1184.83 608.84 1184.81 608.96C1182.97 608.853 1181.13 608.707 1179.31 608.52C1172.65 607.907 1166.05 606.92 1159.52 605.627C1159.39 605.6 1159.24 605.573 1159.09 605.533C1159.12 605.36 1159.16 605.173 1159.2 605C1161.88 594.56 1175.99 593 1182.04 600.347C1183.75 602.4 1184.81 605.133 1184.83 608.573Z" fill="#7640CC"/>
<path d="M1288.99 436.466C1271.36 454.293 1244.55 458.626 1222.88 452.96C1150.21 433.306 1165.04 278.933 1250.73 309.826C1267.99 318.986 1274.53 336.573 1282.24 355.066C1302.17 382.266 1319.81 400.76 1288.99 436.466Z" fill="#F99370"/>
<path d="M1223.95 349.493C1188.31 361.066 1192.35 389.893 1192.35 389.893L1178.2 374.853L1208.21 320.546L1238.05 305.893C1245.52 306.826 1252.33 309.92 1258.13 314.773C1258.13 314.773 1259.6 337.906 1223.95 349.493Z" fill="#E57D61"/>
<path d="M1244.08 571.56C1243.59 574.2 1242.97 576.853 1242.21 579.466C1240.73 584.84 1238.73 590.106 1236.4 595.053C1234.48 599.106 1232.33 602.933 1230 606.413C1214.89 609.146 1199.76 609.946 1184.81 608.96C1182.97 608.853 1181.13 608.706 1179.31 608.52C1172.65 607.906 1166.05 606.92 1159.52 605.626C1159.4 605.413 1159.31 605.213 1159.2 605C1158.92 604.48 1158.67 603.946 1158.41 603.4C1155.64 597.306 1153.93 589.706 1153.57 580.333C1153.48 577.76 1153.25 575.426 1152.92 573.32C1148.28 543.893 1121.72 556.106 1101.47 541.186C1097.32 538.133 1094.91 534.506 1093.51 530.573C1087.56 514.013 1099.45 492.386 1072.53 487.72C984.48 450.653 1083.25 375.946 1119.08 308.426C1155.57 246.613 1205.2 257.906 1231.99 281.173C1242.28 290.106 1249.21 300.813 1250.73 309.813V309.84C1252.95 345.2 1188.68 342 1187.77 380.173C1187.76 380.24 1187.76 380.306 1187.76 380.373L1187.01 384.213L1184.89 394.88L1183.25 403.133L1181.89 409.933V409.946L1181.77 410.506V410.52L1181.71 410.893C1181.71 410.893 1181.92 410.96 1182.32 411.16C1185.25 412.48 1198.33 419.533 1210.71 444.333C1210.73 444.386 1210.75 444.44 1210.77 444.493C1211.53 446 1212.28 447.573 1213.03 449.226C1213.05 449.293 1213.09 449.373 1213.12 449.44C1214.85 453.306 1216.04 457.013 1216.79 460.546C1220.31 476.786 1215.28 489.88 1217.23 502.613C1218.43 510.533 1222.33 518.32 1232.68 526.64C1244.97 536.52 1247.36 554.013 1244.08 571.56Z" fill="#C92828"/>
<path d="M1163.48 396C1168.56 419.453 1197.2 413.4 1192.35 389.893C1187.27 366.44 1158.63 372.493 1163.48 396Z" fill="#F99370"/>
<path d="M1277.28 406.547L1253.53 404.226C1256.45 416.933 1271.97 419.68 1277.28 406.547Z" fill="#F9F8F3"/>
<path d="M1170.92 400.84C1170.41 400.84 1169.95 400.52 1169.8 400.013C1164.45 385.066 1172.56 378.826 1182.4 382.853C1183.83 383.4 1182.96 385.626 1181.53 385.053C1173.11 381.586 1167.59 386.84 1172.05 399.32C1172.29 400.053 1171.71 400.853 1170.92 400.84Z" fill="#C16256"/>
<path d="M1181.96 399.187C1179.81 398.907 1178.64 390.253 1169.51 389.32C1168.85 389.28 1168.36 388.72 1168.41 388.066C1168.45 387.413 1169 386.906 1169.67 386.96C1178.75 387.706 1185.55 398.667 1181.96 399.187Z" fill="#C16256"/>
<path d="M1255.37 372.84C1257.25 369.253 1251.57 366.36 1249.8 370C1247.91 373.586 1253.59 376.48 1255.37 372.84Z" fill="#C16256"/>
<path d="M1281.64 368.413C1283.53 364.826 1277.85 361.946 1276.07 365.586C1274.17 369.173 1279.85 372.066 1281.64 368.413Z" fill="#C16256"/>
<path d="M1277.61 407.413C1277.15 407.666 1253.93 405.093 1253.44 405.146C1252.93 405.093 1252.56 404.64 1252.61 404.133C1251.6 401.986 1277.04 406.066 1277.37 405.626C1278.32 405.693 1278.51 407.106 1277.61 407.413Z" fill="#C16256"/>
<path d="M1271.71 395.6C1270.23 395.44 1267.13 395.733 1267.47 393.613C1267.67 392.986 1268.33 392.653 1268.96 392.853C1272.93 394.253 1282.59 391.493 1277.96 388.666C1271.25 385.04 1266.76 372.346 1266.57 371.813C1266.04 370.373 1268.31 369.573 1268.8 371.026C1268.84 371.16 1273.19 383.386 1279.08 386.586C1286.32 391.68 1277.43 395.52 1271.71 395.6Z" fill="#C16256"/>
<path d="M1172.59 394.64C1173.95 401.933 1185.39 399.64 1183.81 392.373C1182.45 385.066 1171.01 387.373 1172.59 394.64Z" fill="#FDFFDE"/>
<path d="M1191.45 409.306C1189.6 410.133 1177.24 396.973 1175.8 396.106C1172.37 393.04 1177.27 387.733 1180.6 390.906L1193.85 403.16C1196.24 405.213 1194.55 409.413 1191.45 409.306Z" fill="#FDFFDE"/>
<path d="M1091.92 545.827C1092.36 558.44 1074.83 564.013 1068.35 553.507C1074.28 547.453 1080.37 541.213 1087.11 535.72C1090.04 538.107 1091.92 541.747 1091.92 545.827Z" fill="#7640CC"/>
<path d="M1146.91 576.453C1146.83 593.493 1120.92 593.493 1120.85 576.453C1120.93 559.427 1146.83 559.427 1146.91 576.453Z" fill="#7640CC"/>
<path d="M1317.72 511.066C1310.33 528.253 1284.65 514.173 1294.69 498.333C1302.47 502.36 1310.45 506.693 1317.72 511.066Z" fill="#7640CC"/>
<path d="M1326.79 558.853C1326.79 559.187 1326.77 559.52 1326.75 559.827C1326.31 566.707 1321.48 570.573 1316.11 571.453C1314.76 571.653 1313.36 571.693 1312 571.52C1306.15 570.827 1300.77 566.6 1300.73 558.853C1300.76 552.293 1304.63 548.253 1309.39 546.76C1316.96 544.36 1326.75 548.4 1326.79 558.853Z" fill="#7640CC"/>
<path d="M1195.96 596.693C1442.17 589.186 1442.6 231.6 1195.96 223.72C949.427 231.506 949.734 589.186 1195.96 596.693ZM1195.96 199.253C1474.88 208.066 1474.55 612.666 1195.96 621.16C917.467 612.653 916.974 208.16 1195.96 199.253Z" fill="white"/>
<path d="M1467.25 993.626H927.466V139.547H1467.25V993.626ZM1421.21 0.839814H973.506C928.973 0.839814 892.866 36.9198 892.866 81.3998V1051.76C892.866 1063.83 895.533 1075.29 900.293 1085.57C913.093 1113.17 941.053 1132.32 973.506 1132.32H1421.21C1465.75 1132.32 1501.85 1096.25 1501.85 1051.76V81.3998C1501.85 36.9198 1465.75 0.839814 1421.21 0.839814Z" fill="#1D3F70"/>
<path d="M963.733 729.666C1017.76 709.6 988.28 601.44 927.467 571.893V971.16C931.667 973.133 935.6 974.52 939.294 975.4C995.694 983.866 988.907 899.92 949.454 858.306C1002.24 864.96 1003.23 774.4 963.733 729.666Z" fill="#BBC9F9"/>
<path d="M1501.85 916.933C1496.64 986.76 1531.76 1130.57 1421.21 1132.32H973.506C941.053 1132.32 913.093 1113.17 900.293 1085.57C900.293 1085.57 1279.87 1138.71 1501.85 916.933Z" fill="#163356"/>
<path d="M1239.83 1062.69C1238.87 1118.45 1155.84 1118.45 1154.89 1062.69C1155.85 1006.92 1238.88 1006.93 1239.83 1062.69Z" fill="#255084"/>
<path d="M1127.09 75.1732C1127.04 89.0132 1105.96 89.0132 1105.89 75.1732C1105.96 61.3199 1127.04 61.3199 1127.09 75.1732Z" fill="#306599"/>
<path d="M1284.83 82.0532H1153.59C1151.41 82.0532 1149.65 80.2932 1149.65 78.1199C1149.88 74.9199 1148.45 68.1866 1153.59 68.2799H1284.83C1289.87 68.1866 1288.68 74.9199 1288.77 78.1199C1288.77 80.2932 1287 82.0532 1284.83 82.0532Z" fill="#255084"/>
<path d="M973.507 0.839624C1447.48 0.839624 1501.85 139.546 1501.85 139.546V76.733C1501.85 32.2396 1465.76 0.839624 1421.21 0.839624H973.507Z" fill="#255084"/>
<path d="M1467.25 432.666V993.626H1317.43C1414.85 835.36 1441.21 858.666 1443.93 651.64C1443.93 651.64 1418.29 610.906 1407.57 575.933C1383.53 497.426 1436.67 431.893 1467.25 432.666Z" fill="#BBC9F9"/>
<path d="M915.919 982.013C902.373 979.88 880.866 963.346 866.559 951.333V951.32C835.639 926.04 804.226 893.013 829.146 856.573C836.813 845.626 845.159 839.466 856.599 836.653C885.666 829.24 925.639 857.88 942.786 886.253C968.453 929.773 959.506 992.266 915.919 982.013Z" fill="#F99370"/>
<path d="M915.92 982.013C902.374 979.88 880.867 963.347 866.561 951.333C866.561 951.32 869.214 929.253 900.294 907.147C900.294 907.147 960.28 943.96 915.92 982.013Z" fill="#FCB5A7"/>
<path d="M934.12 873.946C911.893 848.773 877.213 826.386 849.026 839.2C876.04 861.013 909.4 896.293 942.786 886.253C940.24 881.933 937.346 877.8 934.12 873.946Z" fill="#E57D61"/>
<path d="M1501.85 495.187V1051.76C1500.07 1165.68 1345.15 1125.67 1274.32 1132.32C1274.32 1132.32 1273.64 1076.13 1316.73 993.627H1467.25V439.613C1481.32 452.933 1491.81 477.693 1501.85 495.187Z" fill="#163356"/>
<path d="M921.6 866.746C902.413 862.24 873.747 836.106 854.28 820.44C811.894 788.853 787.04 732.426 837.027 699.426C872.973 679.213 911.36 705.64 938.853 733.88C980.12 774.746 981.587 880.733 921.6 866.746Z" fill="#F99370"/>
<path d="M921.6 866.747C894.707 864.8 864.64 830.12 864.64 830.12C864.64 830.12 860.894 799.04 899.414 773.947C899.414 773.947 978.12 825.107 921.6 866.747Z" fill="#FCB5A7"/>
<path d="M938.853 733.88C911.36 705.64 872.973 679.213 837.026 699.427C844.386 707.093 852.573 714.36 860.8 721.16V721.173C887.573 742.693 923.28 774.973 952.386 752.413C948.56 745.8 944.04 739.533 938.853 733.88Z" fill="#E57D61"/>
<path d="M921.773 735.587C905 733.387 878.213 712.493 860.8 697.773V697.76C755.933 630.293 832.92 504.92 930.133 597.307C984.04 642.733 981.306 748.147 921.773 735.587Z" fill="#F99370"/>
<path d="M921.786 735.586C921.786 735.586 921.786 735.586 921.773 735.586C905 733.386 878.213 712.493 860.8 697.773C860.773 697.76 859.013 667.413 896.68 644.093C896.68 644.093 973.8 691.453 921.786 735.586Z" fill="#FCB5A7"/>
<path d="M1861.47 1420.41L1926.52 1661.17H1480.81C1450.47 1608.24 1416.16 1553.76 1388.37 1498.07C1377.47 1475.73 1366.27 1452.97 1357.93 1429.15C1340.35 1359.73 1308.67 1155.81 1297.75 1132.32C1306.05 941.227 1473.76 912.36 1460.67 644.093C1375.56 536.84 1442.21 358.12 1506.32 460.493C1518.39 481.973 1529.79 503.32 1540.53 524.64C1631.83 705.613 1676.07 882.24 1680.95 1076.85C1682.37 1133.84 1698.43 1189.48 1727.73 1238.37C1769.21 1277.68 1798.25 1379.96 1861.47 1420.41Z" fill="#F99370"/>
<path d="M2265.67 2025.36H1316.11C1316.76 1935.67 1323.95 1789.08 1331.03 1663.95C1331.36 1657.97 1331.71 1652.04 1332.04 1646.16C1338.89 1526.75 1345.36 1431.13 1345.36 1431.13C1483.71 1408.21 1629.67 1345.96 1726.96 1239.21C1727.23 1238.93 1727.48 1238.65 1727.73 1238.37L1728.36 1238.51C1728.36 1238.51 1788.53 1306.17 1873.52 1415.83C1873.52 1415.84 1873.52 1415.84 1873.52 1415.84C1890.31 1437.51 2164.96 1822.59 2265.67 2025.36Z" fill="#103663"/>
<path d="M1489.21 438.306C1458.99 457.413 1483.31 537.36 1500.09 550.493C1500.09 550.493 1518.79 532.24 1540.53 524.64C1540.53 524.64 1511.17 457.573 1489.21 438.306Z" fill="#FCB5A7"/>
<path d="M1873.52 1415.83C1873.52 1415.84 1873.52 1415.84 1873.52 1415.84C1682.85 1639.03 1332.04 1646.16 1332.04 1646.16C1253.51 1507.33 1345.36 1431.13 1345.36 1431.13C1483.71 1408.21 1629.67 1345.96 1726.96 1239.21L1728.36 1238.51C1881.85 1259.73 1873.63 1414.04 1873.52 1415.83Z" fill="#1D3F70"/>
<path d="M1804.11 1361.39C1804.11 1380.2 1788.87 1395.44 1770.07 1395.44C1751.27 1395.44 1736.01 1380.2 1736.01 1361.39C1736.01 1342.59 1751.27 1327.35 1770.07 1327.35C1788.87 1327.35 1804.11 1342.59 1804.11 1361.39Z" fill="#103663"/>
<path d="M1240.73 368.333C1240.11 368.333 1239.56 367.906 1239.43 367.266C1239.28 366.546 1239.75 365.853 1240.47 365.693C1240.57 365.68 1251.15 363.4 1257.03 354.466C1257.43 353.853 1258.27 353.68 1258.88 354.093C1259.49 354.493 1259.65 355.32 1259.25 355.933C1252.75 365.813 1241.48 368.213 1241 368.306C1240.91 368.333 1240.81 368.333 1240.73 368.333Z" fill="#C16256"/>
<path d="M1281.8 358.347C1281.45 358.347 1281.11 358.213 1280.85 357.947C1277.45 354.493 1270.35 354.267 1270.28 354.267C1269.55 354.253 1268.96 353.64 1268.99 352.893C1269 352.173 1269.6 351.6 1270.32 351.6C1270.33 351.6 1270.33 351.6 1270.35 351.6C1270.68 351.613 1278.61 351.867 1282.75 356.08C1283.27 356.613 1283.25 357.453 1282.73 357.973C1282.48 358.227 1282.13 358.347 1281.8 358.347Z" fill="#C16256"/>
<path d="M577.333 1120.68C577.333 1158.6 527.813 1448.05 311.387 1336.43C383.747 1087.64 562.88 969.933 577.333 1120.68Z" fill="#F99370"/>
<path d="M656.973 2022.28C656.973 2022.28 693.146 1914.6 732.2 1836.19C783.24 1733.71 956.627 1494.63 935.427 1282.61L440.413 1162.43C440.413 1162.43 370.04 1167.35 302.827 1359.95C189.827 1683.71 182.253 1862.97 68.8398 2022.28H656.973Z" fill="#F99370"/>
<path d="M1231.11 1407.37C1225.12 1428.23 1202.56 1455.61 1161.76 1487.91C1017.83 1601.88 950.159 1697.83 725.559 1840.41C574.133 1936.52 440.92 1699.2 603.213 1623.67C717.386 1572.53 811.386 1478.75 922.346 1462.07C978.386 1453.63 1028.05 1436.76 1029.64 1436.2C1080.35 1383.84 1109.49 1370.59 1145.73 1363.47C1210 1350.85 1240.77 1373.72 1231.11 1407.37Z" fill="#F99370"/>
<path d="M1231.11 1407.37C1227.41 1428.17 1188.92 1468.51 1150.92 1496.56C1131.16 1464.67 1105.45 1446.23 1105.45 1446.23C1195.59 1374.05 1231.11 1407.37 1231.11 1407.37Z" fill="#FCB5A7"/>
<path d="M686.733 2025.36H0.0927734C38.7594 1970.56 107.639 1905.01 143.986 1880.69C291.186 1954.03 496.613 1987.69 668.573 1989.32C668.573 1989.32 679.199 2002.21 686.733 2025.36Z" fill="#1D3F70"/>
<path d="M577.333 1120.68L528.986 1217.71C491.413 1135.11 560.986 1070.96 560.986 1070.96C570.04 1081.88 577.133 1098.39 577.333 1120.68Z" fill="#E57D61"/>
<path d="M674.693 1250.03C643.56 1309.32 531.88 1301.75 528.986 1217.71C533.506 1043.45 661.066 1033.07 704.346 1085.99C725.186 1111.47 680.32 1239.31 674.693 1250.03Z" fill="#F99370"/>
<path d="M685.24 1196.61C683.867 1200.04 682.693 1206.35 682.573 1210.65C682.56 1210.71 682.56 1211.03 682.56 1211.25C682.573 1211.29 682.573 1211.36 682.56 1211.4C683.32 1226.43 667.12 1240.89 661.493 1251.61C629.64 1137.48 704.347 1085.99 704.347 1085.99C725.187 1111.47 685.8 1195.24 685.24 1196.61Z" fill="#E57D61"/>
<path d="M843.747 1219.08C837.4 1245.69 827.84 1267.32 817.72 1284.44C807.453 1301.87 796.613 1314.61 788.04 1323.23C778.453 1332.83 771.72 1337.27 771.72 1337.27C679.293 1418.41 598.946 1302.59 693.333 1135.51C739.733 1053.36 816.867 1078.67 844.173 1133.95C856.373 1158.64 858.613 1189.32 843.747 1219.08Z" fill="#F99370"/>
<path d="M843.746 1219.08C837.4 1245.69 788.04 1323.23 788.04 1323.23C782.72 1202.71 844.12 1133.87 844.173 1133.95C856.373 1158.64 858.613 1189.32 843.746 1219.08Z" fill="#E57D61"/>
<path d="M1146.92 989.613C1020.71 1160.17 973.093 1315.2 917.067 1477.43C879.907 1554.2 881.84 1654.33 765.733 1656.55C486.4 1619.49 910.707 1078.87 1071.83 902.587C1198.93 778.373 1240.49 888.813 1146.92 989.613Z" fill="#F99370"/>
<path d="M1127 938.973C1093.68 906.266 1071.81 902.64 1071.81 902.64C1071.81 902.64 1071.83 902.626 1071.84 902.6C1108.51 867.946 1140.57 846.88 1163.89 846.666C1197.41 876.546 1127 938.973 1127 938.973Z" fill="#FCB5A7"/>
<path d="M1029.61 1436.23C936.613 1480.27 880.973 1555.89 880.973 1555.89C910.573 1498.31 922.346 1462.07 922.346 1462.07C978.333 1453.64 1028.07 1436.75 1029.61 1436.23Z" fill="#E57D61"/>
</svg>
