<svg width="2432" height="2326" viewBox="0 0 2432 2326" fill="none" xmlns="http://www.w3.org/2000/svg">
<g filter="url(#filter0_d_39_5)">
<path d="M1147.18 1094.55C1147.18 1094.55 1040.85 1335.04 997.328 1312.49C953.803 1289.95 1135.13 1053.05 1135.13 1053.05C1135.13 1053.05 1002.68 821.787 919.855 775.907C919.855 775.907 899.64 1068.23 863.003 1035.67C826.367 1003.09 833.273 697.933 833.273 697.933C833.273 697.933 656.197 520.827 540.953 618.68C425.709 716.533 436.976 812.827 461.871 841.013C486.764 869.2 681.379 999.32 659.144 1020.93C636.909 1042.53 479.085 993.053 421.94 920.547C421.94 920.547 366.028 1173.57 478.132 1235.89C590.235 1298.23 667.586 1255.48 736.163 1295.25C804.74 1335.03 840.28 1385.29 795.656 1380.44C751.032 1375.57 648.915 1288 565.556 1296.55C482.199 1305.11 420.665 1303.37 504.584 1390.6C588.503 1477.81 772.472 1585.85 859.217 1534.83C862.999 1532.6 866.605 1530.47 870.064 1528.44C863.677 1533.19 859.217 1534.83 859.217 1534.83C870.012 1557.73 862.565 1626.45 854.872 1677.81C853.043 1686.2 851.044 1698.16 848.871 1714.79C847.595 1722.09 846.504 1728.04 845.727 1732.19C820.918 1842.04 700.361 1978.29 700.361 1978.29L717.379 1998.25C866.744 1880.08 870.324 1701.11 870.324 1701.11C884.894 1567.23 945.963 1483.79 945.963 1483.79C945.963 1483.79 1206.19 1507.75 1216.69 1304.68C1216.69 1304.68 1206.83 1168.77 1147.18 1094.55Z" fill="#DFEBFD"/>
<path d="M1910.36 988.84C1910.36 988.84 1783.39 1242.85 1654.4 1418.2C1603.09 1487.99 1551.44 1545.31 1507.37 1569.21C1464.23 1592.6 1427.71 1628.95 1397.49 1669.21C1319.22 1773.49 1283.1 1904.04 1283.1 1904.04L953.284 1405.07C953.284 1405.07 964.539 917.32 1004.14 835.733C1061.85 716.84 1089.73 476.614 1111.91 428.787C1128.36 393.307 1175.33 210.04 1179.84 196.573C1181.79 190.773 1197.42 181.88 1217.72 181.894C1234.01 181.894 1261.66 197.64 1268.64 229.987C1303.91 393.52 1261.46 501.387 1261.94 506.173C1274.38 631.853 1236.97 725.147 1263.2 749.854C1264.18 750.76 1265.99 750.333 1268.56 748.693C1314.03 719.507 1596.23 308.08 1630.99 299.2C1667.69 289.84 1910.36 988.84 1910.36 988.84Z" fill="#EFA26F"/>
<path d="M1382.32 1805.29C1382.32 1805.29 1377.83 2027.03 1364.97 2325.67H533.042C723.206 1920.15 888.53 1578.84 888.53 1578.84C888.53 1578.84 1362.23 1593.31 1382.32 1805.29Z" fill="#F99746"/>
<path d="M2198.72 129.174L2096.59 278.894L1996.36 425.827C1990.25 433.2 1983.17 435.774 1975.52 435.027C1951.48 432.747 1921.72 398.054 1898.53 378.854L1896.17 376.92C1865.6 351.627 1861.28 305.907 1886.57 275.347L2039.76 90.1736V90.16L2085.19 35.2535C2110.49 4.66684 2156.2 0.346887 2186.76 25.6402L2189.12 27.5736C2219.69 52.8802 2224.01 98.5869 2198.72 129.174Z" fill="#FFB27D"/>
<path d="M2096.59 278.894L1996.36 425.827C1990.25 433.2 1983.17 435.774 1975.52 435.027L2039.76 90.1736C2039.89 92.1069 2050.81 246.84 2096.59 278.894Z" fill="#EFA26F"/>
<path d="M1654.4 1418.2C1603.09 1487.99 1551.44 1545.31 1507.37 1569.21C1464.23 1592.6 1427.71 1628.95 1397.49 1669.21C1362.73 1653.01 1323.1 1634 1284.37 1615.17C1237.21 1592.25 1235.4 1525.29 1281.6 1500.47C1282.05 1500.23 1282.49 1499.99 1282.92 1499.73C1326.21 1474.97 1370.56 1387.51 1370.56 1387.51L1654.4 1418.2Z" fill="#D38254"/>
<path d="M1177.54 204.16L1150.81 312.054C1150.81 312.054 1174.18 321.614 1189.18 314.187C1204.18 306.774 1216.42 209.974 1177.54 204.16Z" fill="#FFC197"/>
<path d="M1946.05 1469.19H1371.41C1314.89 1469.19 1268.64 1422.93 1268.64 1366.41V103.333C1268.64 46.8001 1314.89 0.560032 1371.41 0.560032H1946.05C2002.57 0.560032 2048.81 46.8001 2048.81 103.333V1366.41C2048.81 1422.93 2002.57 1469.19 1946.05 1469.19Z" fill="#2B478B"/>
<path d="M2010.15 113.054V1346.87C2010.15 1388.72 1976.15 1422.96 1934.61 1422.96H1382.84C1341.31 1422.96 1307.32 1388.72 1307.32 1346.87V113.054C1307.32 71.2002 1341.31 36.96 1382.84 36.96H1934.61C1976.15 36.96 2010.15 71.2002 2010.15 113.054Z" fill="#C0D8FB"/>
<path d="M1934.61 36.96L1389.67 1422.96H1382.84C1341.31 1422.96 1307.32 1388.72 1307.32 1346.87V113.054C1307.32 71.2002 1341.31 36.96 1382.84 36.96H1934.61Z" fill="#CBE1FD"/>
<path d="M1774.04 82.8403H1543.43C1524.64 82.8403 1509.28 67.4801 1509.28 48.6935V43.3203C1509.28 24.5336 1524.64 9.16013 1543.43 9.16013H1774.04C1792.83 9.16013 1808.19 24.5336 1808.19 43.3203V48.6935C1808.19 67.4801 1792.83 82.8403 1774.04 82.8403Z" fill="#2B478B"/>
<path d="M2147.88 694.6L2132.65 700.387L2030.23 739.307C2027.83 740.213 2025.4 741 2022.97 741.6C1989.05 750.413 1952.97 732.347 1940.25 698.88L1938.75 694.947C1925.12 659.08 1943.31 618.573 1979.17 604.947L2074.67 568.667L2081.6 566.027L2096.83 560.24C2132.69 546.613 2173.17 564.8 2186.8 600.667L2188.31 604.6C2201.93 640.467 2183.75 680.973 2147.88 694.6Z" fill="#FFB27D"/>
<path d="M2064.71 696.947C2047.61 703.427 2016.67 714.92 2000.12 717.293C1995.44 717.973 1986.8 715.427 1978.76 706.6C1973.92 701.32 1969.31 693.8 1965.88 683.373C1964.27 678.467 1962.93 673.587 1962.37 668.547C1961.73 662.64 1961.91 656.747 1962.93 650.907C1963.87 645.653 1967.47 640.853 1972.71 638.333C1972.72 638.307 1972.76 638.307 1972.79 638.293C1990.39 629.88 2014.11 619.64 2034.89 613.933C2049.28 609.96 2063.83 616.307 2068.37 628.893L2070.52 634.773L2081.52 664.88C2086.07 677.387 2078.67 691.68 2064.71 696.947Z" fill="#FFD3B6"/>
<path d="M2064.71 696.947C2047.61 703.427 2016.67 714.92 2000.12 717.293C1995.44 717.973 1986.8 715.427 1978.76 706.6C1977.89 704.6 1977.11 702.48 1976.36 700.227C1974.75 695.32 1973.41 690.427 1972.85 685.387C1972.23 679.493 1972.39 673.6 1973.41 667.76C1974.36 662.493 1977.95 657.707 1983.19 655.173C1983.21 655.16 1983.25 655.16 1983.27 655.147C2000.87 646.733 2024.59 636.493 2045.39 630.787C2054.6 628.24 2063.87 629.92 2070.52 634.773L2081.52 664.88C2086.07 677.387 2078.67 691.68 2064.71 696.947Z" fill="#FFC197"/>
<path d="M2101.4 838.587L2022.43 860.093C1998.43 866.627 1973.44 852.333 1966.91 828.333L1964.47 819.4C1957.93 795.4 1972.23 770.413 1996.23 763.88L2075.21 742.373C2099.21 735.84 2124.19 750.133 2130.72 774.133L2133.16 783.08C2139.69 807.08 2125.4 832.053 2101.4 838.587Z" fill="#FFB27D"/>
<path d="M2058.69 834.72C2044.19 838.587 2017.96 845.427 2004.21 846.173C1999.21 846.453 1989.2 842.227 1982.67 829.08C1981.05 825.893 1979.69 822.213 1978.63 817.947C1977.67 814.067 1976.93 810.227 1976.87 806.333C1976.77 801.747 1977.35 797.24 1978.63 792.813C1979.76 788.827 1983.08 785.387 1987.56 783.787C1987.59 783.773 1987.61 783.773 1987.63 783.76C2002.68 778.44 2022.89 772.093 2040.39 769.04C2052.47 766.92 2063.92 772.733 2066.75 782.693L2068.79 789.8L2074.87 811.16C2077.68 821.053 2070.55 831.573 2058.69 834.72Z" fill="#FFD3B6"/>
<path d="M2058.69 834.72C2044.19 838.587 2017.96 845.427 2004.21 846.173C1999.21 846.453 1989.2 842.227 1982.67 829.08C1981.79 825.467 1981.15 821.853 1981.08 818.187C1980.99 813.613 1981.56 809.08 1982.84 804.667C1983.97 800.693 1987.29 797.24 1991.76 795.64C1991.8 795.627 1991.83 795.627 1991.84 795.6C2006.89 790.293 2027.11 783.947 2044.6 780.907C2054.6 779.147 2064.17 782.84 2068.79 789.8L2074.87 811.16C2077.68 821.053 2070.55 831.573 2058.69 834.72Z" fill="#FFC197"/>
<path d="M807.54 1747.07C807.54 1747.07 970.111 1902.77 1079.7 1962.89L1162.68 1904.04V1990.85C1162.68 1990.85 1325.87 2019.72 1377.35 1990.85V1754.09L918.992 1524.32L807.54 1747.07Z" fill="#ED7D2B"/>
<path d="M953.292 1387.51C953.292 1387.51 850.053 1541.96 747.447 1707.09C747.447 1707.09 963.683 1855.84 1080.92 1899.48L1234.69 1723.36L1212.74 1935.36C1212.74 1935.36 1348.83 1984.96 1411.96 1972.01C1411.96 1972.01 1407.97 1779.69 1408.01 1653.68C1408.01 1653.68 1033.92 1548.83 953.292 1387.51Z" fill="#F3F8FF"/>
<path d="M978.685 1779.45C978.816 1765.32 990.381 1753.96 1004.52 1754.09C1018.65 1754.23 1030.01 1765.79 1029.87 1779.93C1029.74 1794.07 1018.18 1805.41 1004.04 1805.28C989.908 1805.16 978.555 1793.59 978.685 1779.45Z" fill="#F99746"/>
<path d="M2145.39 543.227C2144.83 543.427 2144.27 543.614 2143.68 543.8L2040.13 570.387C1994.6 582.094 1947.52 557.454 1935.51 515.654L1929.35 494.227C1917.79 454.094 1942.61 412.12 1984.92 398.507L2019.11 389.734L2088.48 371.92C2134 360.227 2181.09 384.867 2193.11 426.667L2199.27 448.08C2210.65 487.68 2186.65 529.027 2145.39 543.227Z" fill="#FFB27D"/>
<path d="M2097.93 514.32L2047.63 536.987C2047.56 537.013 2047.47 537.027 2047.31 537.067C2045.29 537.613 2043.25 538.013 2041.23 538.32C2040.39 538.453 2039.52 538.547 2038.68 538.64C2038.32 538.68 2037.97 538.68 2037.61 538.653C2032.07 538.467 2028.28 532.587 2030.67 527.347C2035.43 517 2036.72 505.013 2033.52 493.24L2032.32 488.853C2032.32 488.813 2032.29 488.76 2032.28 488.72L2028.39 474.44C2025.29 463.053 2018.72 453.533 2010.15 446.64C2009.12 445.8 2008.05 445.013 2006.97 444.267C1997.03 437.373 1999.56 421.773 2011.2 418.547C2011.31 418.507 2011.4 418.48 2011.52 418.44L2066.72 410.093C2080.37 406.387 2093.52 416.893 2097.24 430.547L2101.68 446.813L2111.12 481.493C2114.83 495.16 2111.59 510.613 2097.93 514.32Z" fill="#FFD3B6"/>
<path d="M2097.93 514.32L2047.63 536.987C2047.56 537.013 2047.47 537.027 2047.31 537.067C2046.13 537.293 2042.44 537.907 2037.61 538.653C2032.07 538.467 2028.28 532.587 2030.67 527.347C2035.43 517 2036.72 505.013 2033.52 493.24L2032.32 488.853C2032.32 488.813 2032.29 488.76 2032.28 488.72L2028.39 474.44C2025.29 463.053 2018.72 453.533 2010.15 446.64C2011.93 444.04 2014.59 441.973 2018.07 441C2018.16 440.973 2018.28 440.947 2018.39 440.907L2073.6 432.56C2085.09 429.44 2096.21 436.4 2101.68 446.813L2111.12 481.493C2114.83 495.16 2111.59 510.613 2097.93 514.32Z" fill="#FFC197"/>
<path d="M1268.64 1081.83C1268.64 1081.83 1246.05 884.64 1225.21 846.187C1204.37 807.72 1186.73 730.72 1218.79 673.507C1250.86 616.267 1261.94 506.173 1261.94 506.173C1274.38 631.853 1236.97 725.147 1263.2 749.853C1264.18 750.76 1265.99 750.333 1268.56 748.693L1268.64 1081.83Z" fill="#D38254"/>
<path d="M654.259 1814.65C654.259 1814.65 615.741 1709.37 551.781 1664.15C551.781 1664.15 522.027 1878.43 482.499 1870.43C442.971 1862.43 532.867 1634.04 532.867 1634.04C532.867 1634.04 375.808 1481.05 299.927 1463.47C299.927 1463.47 350.017 1699.29 313.664 1681.81C277.325 1664.33 213.805 1421.36 213.805 1421.36C213.805 1421.36 81.2651 1347.72 0 1392.12V1639.33C62.2031 1663.96 158.389 1700.01 149.071 1716.23C139.752 1732.47 64.0027 1734.91 0 1717.51V1889.69C14.5417 1908.24 32.4473 1922.07 54.4792 1927.2C157.249 1951.16 208.773 1899.85 272.015 1915.83C335.256 1931.79 374.725 1963.51 338.328 1969.76C301.931 1976 201.356 1929.8 137.353 1955.41C73.336 1981.01 24.2693 1993.57 110.377 2043.59C196.469 2093.61 366.416 2137.49 423.5 2077.51C423.5 2077.51 423.5 2077.51 423.513 2077.49C426 2074.88 428.385 2072.37 430.653 2070C430.667 2069.97 430.679 2069.96 430.692 2069.95C426.691 2075.2 423.505 2077.52 423.505 2077.52C437.227 2093.2 446.872 2149.28 452.396 2191.65C452.839 2198.67 453.964 2208.56 455.989 2222.11C456.656 2228.39 457.151 2233.49 457.475 2236.97C458.969 2264.36 454.381 2295.45 447.155 2325.67H474.584C483.313 2257.63 469.932 2206.76 469.876 2206.55H469.88C451.143 2097.35 480.587 2017.53 480.587 2017.53C481.053 2017.44 691.815 1977.49 654.259 1814.65Z" fill="#E1EEFB"/>
<path d="M2416.59 1626.32C2380.44 1492.81 2155.15 1534.53 2155.15 1534.53C2155.15 1534.53 2002.17 1768.17 1957.67 1773.73C1913.17 1779.29 2049.45 1548.44 2049.45 1548.44C1963.23 1540.11 1743.51 1645.79 1743.51 1645.79C1743.51 1645.79 1757.41 1918.36 1712.91 1912.8C1668.41 1907.24 1712.91 1670.83 1712.91 1670.83C1629.47 1695.85 1551.59 1793.2 1551.59 1793.2C1454.24 1951.73 1662.84 2068.56 1662.84 2068.56C1662.84 2068.56 1665.63 2163.12 1607.23 2271.6H1607.21C1607.21 2271.6 1594.04 2291.63 1580.64 2325.67H1603.39C1605.24 2319.56 1607.29 2313.67 1609.56 2308.01C1609.56 2307.96 1609.57 2307.93 1609.6 2307.91C1609.63 2307.83 1609.67 2307.75 1609.71 2307.67C1611.25 2304.15 1613.49 2299.15 1616.29 2293.05C1616.29 2293.04 1616.29 2293.04 1616.31 2293.03C1616.31 2293.01 1616.32 2293.01 1616.32 2293C1623.27 2279.4 1627.96 2269.35 1630.93 2262.09C1630.95 2262.07 1630.95 2262.04 1630.95 2262.03C1651.77 2219.32 1681.77 2163.67 1701.79 2152C1701.79 2152 1699.27 2148.45 1696.92 2141.56C1698.47 2144.89 1700.09 2148.36 1701.79 2152C1740.72 2235.44 1935.41 2249.35 2043.89 2227.09C2152.36 2204.84 2105.08 2174.25 2046.67 2124.59C1988.27 2074.93 1865.88 2088.03 1829.73 2068.56C1793.57 2049.09 1846.41 2029.61 1918.73 2035.17C1991.04 2040.75 2027.2 2113.05 2144.03 2124.19C2260.84 2135.31 2349.84 1915.59 2349.84 1915.59C2269.19 1940.61 2124.55 1896.11 2118.99 1868.29C2113.43 1840.48 2327.59 1843.27 2360.96 1834.92C2394.35 1826.57 2452.75 1759.83 2416.59 1626.32Z" fill="#DFEBFD"/>
</g>
<defs>
<filter id="filter0_d_39_5" x="-4" y="0.560036" width="2436" height="2333.11" filterUnits="userSpaceOnUse" color-interpolation-filters="sRGB">
<feFlood flood-opacity="0" result="BackgroundImageFix"/>
<feColorMatrix in="SourceAlpha" type="matrix" values="0 0 0 0 0 0 0 0 0 0 0 0 0 0 0 0 0 0 127 0" result="hardAlpha"/>
<feOffset dy="4"/>
<feGaussianBlur stdDeviation="2"/>
<feComposite in2="hardAlpha" operator="out"/>
<feColorMatrix type="matrix" values="0 0 0 0 0 0 0 0 0 0 0 0 0 0 0 0 0 0 0.25 0"/>
<feBlend mode="normal" in2="BackgroundImageFix" result="effect1_dropShadow_39_5"/>
<feBlend mode="normal" in="SourceGraphic" in2="effect1_dropShadow_39_5" result="shape"/>
</filter>
</defs>
</svg>
