<svg width="180" height="180" viewBox="0 0 180 180" fill="none" xmlns="http://www.w3.org/2000/svg">
<path d="M180 89.9999C180 40.2943 139.705 0 90 0C40.2945 0 0 40.2943 0 89.9999C0 139.706 40.2945 180 90 180C139.705 180 180 139.706 180 89.9999Z" fill="url(#paint0_linear_14_141)"/>
<path d="M115.536 29.7886H64.4318C45.8892 29.7886 30.7832 44.894 30.7832 63.4367V114.542C30.7832 133.085 45.8892 148.19 64.4318 148.19H115.536C134.079 148.19 149.185 133.085 149.185 114.542V63.4367C149.185 44.894 134.079 29.7886 115.536 29.7886ZM140.531 115.447C140.531 128.894 129.587 139.839 116.14 139.839H63.8282C50.381 139.839 39.4368 128.894 39.4368 115.447V63.1655C39.4368 49.7182 50.381 38.7734 63.8282 38.7734H116.14C129.587 38.7734 140.531 49.7182 140.531 63.1655V115.447Z" fill="white"/>
<path d="M89.9982 59.1855C73.3852 59.1855 59.877 72.6931 59.877 89.3061C59.877 105.919 73.3852 119.427 89.9982 119.427C106.611 119.427 120.118 105.919 120.118 89.3061C120.118 72.6931 106.611 59.1855 89.9982 59.1855ZM89.9982 110.894C78.1188 110.894 68.4407 101.216 68.4407 89.3363C68.4407 77.4569 78.1188 67.7784 89.9982 67.7784C101.878 67.7784 111.556 77.4569 111.556 89.3363C111.556 101.216 101.878 110.894 89.9982 110.894Z" fill="white"/>
<path d="M122.412 50.6836C119.065 50.6836 116.351 53.3972 116.351 56.7439C116.351 60.0907 119.065 62.8043 122.412 62.8043C125.758 62.8043 128.471 60.0907 128.471 56.7439C128.471 53.3972 125.758 50.6836 122.412 50.6836Z" fill="white"/>
<defs>
<linearGradient id="paint0_linear_14_141" x1="22" y1="32" x2="156" y2="153" gradientUnits="userSpaceOnUse">
<stop offset="0.015625" stop-color="#1F2B13"/>
<stop offset="0.411458" stop-color="#344A12"/>
<stop offset="0.927083" stop-color="#486711"/>
</linearGradient>
</defs>
</svg>
