<svg width="180" height="180" viewBox="0 0 180 180" fill="none" xmlns="http://www.w3.org/2000/svg">
<path d="M180 89.9999C180 40.2943 139.705 0 90 0C40.2945 0 0 40.2943 0 89.9999C0 139.706 40.2945 180 90 180C139.705 180 180 139.706 180 89.9999Z" fill="url(#paint0_linear_14_147)"/>
<path d="M78.4157 68.5877L77.1201 65.0297C76.3965 63.1001 75.7931 63.1001 75.1901 63.1302C75.0695 63.1302 74.9485 63.1302 74.8279 63.1302C74.4058 63.1302 73.9544 63.07 73.472 63.0097C73.0499 62.9795 72.5963 62.9193 72.1441 62.8892C72.1139 62.8892 72.0851 62.8892 72.0248 62.8892C71.4519 62.8892 70.1547 63.04 68.9788 64.246L68.677 64.5474C67.1996 66.0248 64.1247 69.0701 63.8835 75.1605C63.6423 81.251 67.6528 87.5224 68.889 89.3012C68.9493 89.3917 69.0386 89.5424 69.1893 89.7836C75.4607 99.8841 83.3909 107.392 91.592 110.98C102.929 115.955 104.858 115.562 106.547 115.231C106.969 115.14 107.361 115.08 107.844 115.05C110.075 114.929 115.622 112.186 116.798 109.291C118.004 106.306 118.065 103.834 117.884 103.382C117.764 103.14 117.1 102.809 116.377 102.417L115.623 102.025C114.055 101.181 107.542 97.653 106.336 97.1705C105.1 96.658 104.768 96.6278 104.165 97.472C102.989 99.1001 99.522 102.809 99.4919 102.869C98.0446 104.407 96.5677 103.894 95.4521 103.261C95.2411 103.14 94.9394 103.02 94.5776 102.839C92.6781 101.934 88.6977 100.035 84.2957 95.7835C80.3459 91.9846 77.6919 87.4017 76.7271 85.6228C75.6416 83.6027 76.939 82.4267 77.6325 81.7936C78.0244 81.4317 78.506 80.8891 78.9884 80.3464C79.2597 80.0449 79.5319 79.7434 79.7731 79.4721C80.3158 78.8992 80.5566 78.447 80.9184 77.7836L81.1304 77.3615C81.4018 76.8489 81.4017 76.3665 81.0701 75.6429C80.859 75.1605 79.8335 72.4167 78.4466 68.6177L78.4157 68.5877Z" fill="white"/>
<path d="M144.237 88.8492C144.237 59.1507 120.086 35 90.3876 35C60.6889 35 36.5385 59.1507 36.5385 88.8492C36.5385 98.6783 39.2206 108.296 44.2558 116.648L44.4678 116.98L35 145.141L64.0659 135.854L64.3677 136.035C72.2974 140.407 81.3121 142.729 90.3876 142.729C120.086 142.729 144.237 118.578 144.237 88.8794V88.8492ZM46.5171 133.744L52.6077 115.683C46.9996 107.814 44.0158 98.5276 44.0158 88.8492C44.0158 63.2814 64.8196 42.4773 90.3876 42.4773C115.956 42.4773 136.759 63.2814 136.759 88.8492C136.759 114.417 115.956 135.221 90.3876 135.221C81.4327 135.221 72.7188 132.658 65.2113 127.774L46.5171 133.744Z" fill="white"/>
<defs>
<linearGradient id="paint0_linear_14_147" x1="22" y1="32" x2="156" y2="153" gradientUnits="userSpaceOnUse">
<stop offset="0.015625" stop-color="#1F2B13"/>
<stop offset="0.411458" stop-color="#344A12"/>
<stop offset="0.927083" stop-color="#486711"/>
</linearGradient>
</defs>
</svg>
