<svg width="180" height="180" viewBox="0 0 180 180" fill="none" xmlns="http://www.w3.org/2000/svg">
<path d="M180 89.9999C180 40.2943 139.705 0 90 0C40.2945 0 0 40.2943 0 89.9999C0 139.706 40.2945 180 90 180C139.705 180 180 139.706 180 89.9999Z" fill="url(#paint0_linear_14_152)"/>
<path d="M89.9988 97.9899L144.572 51.2864C143.456 50.3518 142.068 49.8091 140.591 49.8091H39.4051C37.9278 49.8091 36.5414 50.3819 35.4258 51.2864L89.9988 97.9899Z" fill="white"/>
<path d="M147.226 123.317C147.347 122.714 147.437 122.081 147.437 121.447V58.6436L114.754 86.6234L147.195 123.317H147.226Z" fill="white"/>
<path d="M109.176 91.418L90.0296 107.82L70.8836 91.418L37.6885 129.016C38.2613 129.197 38.8337 129.317 39.4669 129.317H140.653C141.256 129.317 141.858 129.197 142.431 129.016L109.236 91.418H109.176Z" fill="white"/>
<path d="M65.2458 86.6234L32.5615 58.6436V121.447C32.5615 122.111 32.6529 122.714 32.7735 123.317L65.2149 86.6234H65.2458Z" fill="white"/>
<defs>
<linearGradient id="paint0_linear_14_152" x1="22" y1="32" x2="156" y2="153" gradientUnits="userSpaceOnUse">
<stop offset="0.015625" stop-color="#1F2B13"/>
<stop offset="0.411458" stop-color="#344A12"/>
<stop offset="0.927083" stop-color="#486711"/>
</linearGradient>
</defs>
</svg>
